<?xml version="1.0" encoding="utf-8"?>
<!-- Generator: Adobe Illustrator 18.0.0, SVG Export Plug-In . SVG Version: 6.00 Build 0)  -->
<!DOCTYPE svg PUBLIC "-//W3C//DTD SVG 1.1//EN" "http://www.w3.org/Graphics/SVG/1.1/DTD/svg11.dtd">
<svg version="1.1" id="e40dbab3-7199-42f3-a1b5-5e6095ffebac"
	 xmlns="http://www.w3.org/2000/svg" xmlns:xlink="http://www.w3.org/1999/xlink" x="0px" y="0px" viewBox="32.1 54.2 404.3 399.8"
	 enable-background="new 32.1 54.2 404.3 399.8" xml:space="preserve">
<g>
	<circle fill="#1D3557" cx="390.3" cy="155" r="46.1"/>
	<path fill="#457B9D" d="M393.7,440.1v-106c0-3.1,2.5-5.6,5.6-5.6H412c3.1,0,5.6,2.5,5.6,5.6v106c0,3.1-2.5,5.6-5.6,5.6h-12.8
		C396.2,445.7,393.7,443.2,393.7,440.1z"/>
	<path fill="#457B9D" d="M366.8,440.1v-106c0-3.1,2.5-5.6,5.6-5.6h12.8c3.1,0,5.6,2.5,5.6,5.6v106c0,3.1-2.5,5.6-5.6,5.6h-12.8
		C369.3,445.7,366.8,443.2,366.8,440.1z"/>
	<path fill="#457B9D" d="M356.3,340.5v-93.9c0-19,15.4-34.5,34.5-34.5l0,0c19,0,34.5,15.4,34.5,34.5v93.9c0,3.1-2.5,5.6-5.6,5.6
		h-57.8C358.8,346.1,356.3,343.6,356.3,340.5z"/>
	<path fill="#1D3557" d="M408.6,340.5c-1.1-1-1.7-2.4-1.8-3.9l-4.4-105.9c-0.1-3.1,2.2-5.7,5.3-5.9l0,0l12.7-0.5
		c3.1-0.1,5.7,2.2,5.9,5.3l4.4,105.9c0.1,3.1-2.2,5.7-5.3,5.9l-12.7,0.5c-0.4,0-0.8,0-1.2-0.1C410.3,341.7,409.3,341.1,408.6,340.5z
		"/>
	<path fill="#457B9D" d="M424.8,268.7h-20.7c-3.1,0-5.6-2.5-5.6-5.6v-29.3c0-8.8,7.2-15.9,15.9-15.9s15.9,7.2,15.9,15.9l0,0v29.3
		C430.4,266.2,427.9,268.7,424.8,268.7z"/>
	<path fill="#1D3557" d="M290.8,164.3l9.8-8.1c2.4-2,5.9-1.6,7.9,0.8l67.4,81.8c2,2.4,1.6,5.9-0.8,7.8l-9.8,8.1
		c-2.4,2-5.9,1.6-7.8-0.8l0,0l-67.4-81.8c-1.6-2.1-1.7-4.9-0.1-7C290.2,164.9,290.6,164.5,290.8,164.3z"/>
	<path fill="#457B9D" d="M341.1,231l16-13.1c2.4-2,5.9-1.6,7.8,0.8l18.6,22.7c5.6,6.8,4.6,16.9-2.2,22.4c-6.8,5.6-16.9,4.6-22.4-2.2
		l0,0l-18.6-22.7C338.5,236.4,338.8,232.9,341.1,231z"/>
	<path fill="#CCCCCC" d="M378.7,253.4L378.7,253.4c-1,0-1.9-0.7-2.1-1.6l0.2-35.9c-0.3-1,0.3-2,1.2-2.5c6.3-2.9,12.7-3.4,19.7-1.2
		c1.1,0.3,1.8,1.5,1.5,2.6l-18.4,37C380.6,252.8,379.8,253.5,378.7,253.4z"/>
</g>
<g>
	<circle fill="#1D3557" cx="78.2" cy="155" r="46.1"/>
	<path fill="#457B9D" d="M69.2,445.7H56.5c-3.1,0-5.6-2.5-5.6-5.6v-106c0-3.1,2.5-5.6,5.6-5.6h12.7c3.1,0,5.6,2.5,5.6,5.6v106
		C74.7,443.2,72.2,445.7,69.2,445.7z"/>
	<path fill="#457B9D" d="M96,445.7H83.3c-3.1,0-5.6-2.5-5.6-5.6v-106c0-3.1,2.5-5.6,5.6-5.6H96c3.1,0,5.6,2.5,5.6,5.6v106
		C101.6,443.2,99.1,445.7,96,445.7z"/>
	<path fill="#457B9D" d="M106.6,346.1H48.8c-3.1,0-5.6-2.5-5.6-5.6v-93.9c0-19,15.4-34.5,34.5-34.5l0,0c19,0,34.5,15.4,34.5,34.5
		v93.9C112.1,343.6,109.6,346.1,106.6,346.1z"/>
	<path fill="#1D3557" d="M57.1,341.8c-0.4,0.1-0.8,0.1-1.2,0.1l-12.7-0.5c-3.1-0.2-5.4-2.8-5.3-5.9l4.4-105.9
		c0.2-3.1,2.8-5.4,5.9-5.3l12.7,0.5l0,0c3.1,0.2,5.4,2.8,5.3,5.9l-4.4,105.9c-0.1,1.5-0.7,2.8-1.8,3.9
		C59.1,341.1,58.2,341.7,57.1,341.8z"/>
	<path fill="#457B9D" d="M38.1,263.1v-29.3l0,0c0-8.8,7.2-15.9,15.9-15.9S70,225,70,233.8v29.3c0,3.1-2.5,5.6-5.6,5.6H43.7
		C40.6,268.7,38.1,266.2,38.1,263.1z"/>
	<path fill="#1D3557" d="M178.4,165.1c1.6,2.1,1.6,4.9-0.1,7l-67.4,81.8l0,0c-1.9,2.4-5.4,2.8-7.8,0.8l-9.8-8.1
		c-2.4-1.9-2.8-5.4-0.8-7.8l67.4-81.8c2-2.4,5.5-2.8,7.9-0.8l9.8,8.1C177.9,164.5,178.3,164.9,178.4,165.1z"/>
	<path fill="#457B9D" d="M128.1,238.8l-18.6,22.7l0,0c-5.5,6.8-15.6,7.8-22.4,2.2c-6.8-5.5-7.8-15.6-2.2-22.4l18.6-22.7
		c1.9-2.4,5.4-2.8,7.8-0.8l16,13.1C129.6,232.9,130,236.4,128.1,238.8z"/>
	<path fill="#CCCCCC" d="M87.7,251.7l-18.4-37c-0.3-1.1,0.3-2.2,1.5-2.6c7.1-2.2,13.4-1.7,19.7,1.2c0.9,0.5,1.5,1.5,1.2,2.5
		l0.2,35.9c-0.2,0.9-1,1.6-2.1,1.6l0,0C88.7,253.5,87.8,252.8,87.7,251.7z"/>
</g>
<g>
	<path fill="#FFFFFF" d="M316.5,189.5H156.2c-4.5,0-8.2-3.7-8.2-8.2V62.4c0-4.5,3.7-8.2,8.2-8.2h160.3c4.5,0,8.2,3.7,8.2,8.2v118.9
		C324.7,185.9,321,189.5,316.5,189.5z"/>
	<path fill="#457B9D" d="M316.5,189.5H156.2c-4.5,0-8.2-3.7-8.2-8.2V62.4c0-4.5,3.7-8.2,8.2-8.2h160.3c4.5,0,8.2,3.7,8.2,8.2v118.9
		C324.7,185.9,321,189.5,316.5,189.5z M156.2,56.8c-3.1,0-5.6,2.5-5.6,5.6v118.9c0,3.1,2.5,5.6,5.6,5.6h160.3c3.1,0,5.6-2.5,5.6-5.6
		V62.4c0-3.1-2.5-5.6-5.6-5.6C316.5,56.8,156.2,56.8,156.2,56.8z"/>
	<g>
		<path fill="#1D3557" d="M183.2,83.9c16.3,0,24.5,8.1,24.5,24.4v1c0,9.9-7.4,16.3-22.2,19.1c-0.8,18.4-2.3,27.6-4.7,27.6h-2.3
			c-2.2,0-4.1-3.5-5.9-10.6l1.2-5.3v-9.6c0-6-0.8-13.4-2.3-22.3c0-0.8,0.4-1.8,1.2-3.2c-0.8-3.8-1.2-7-1.2-9.6v-3.2
			C175.6,86.8,179.5,83.9,183.2,83.9z M185.5,96.7v11.6l-1.2,10.6c7.8-1.9,11.6-5.4,11.6-10.6v-1C195.9,101.9,192.5,98.3,185.5,96.7
			z"/>
		<path fill="#1D3557" d="M233.8,85c4.7,0,7.4,2.8,8.1,8.5c-0.6,2.2-5.3,4.7-14,7.4c-4.7,9.7-7,16.1-7,19.1v2.2
			c0,19.1,3.9,28.7,11.6,28.7c7,1.4,10.4,2.8,10.4,4.2v1c-1.2,2.8-4,4.2-8.1,4.2h-4.7c-11.3,0-18.4-11.4-20.9-34v-10.6
			C213.1,95.3,221.3,85,233.8,85z"/>
		<path fill="#1D3557" d="M257.3,87.1c2.3,2.5,3.5,6,3.5,10.6c0,7-0.4,15.5-1.2,25.5l1.2,7.4c-2.2,17.7-4.1,26.5-5.9,26.5h-4.7
			c0-0.4-0.8-2.6-2.3-6.4c0-2.4,0.4-9.8,1.2-22.3c-1.6-10.6-2.3-19.5-2.3-26.6v-9.4C246.8,90.3,250.3,88.6,257.3,87.1z"/>
		<path fill="#1D3557" d="M279,83.9c16.3,0,24.5,8.1,24.5,24.4v1c0,9.9-7.3,16.3-22.2,19.1c-0.8,18.4-2.3,27.6-4.7,27.6h-2.3
			c-2.2,0-4.1-3.5-5.9-10.6l1.2-5.3v-9.6c0-6-0.8-13.4-2.3-22.3c0-0.8,0.4-1.8,1.2-3.2c-0.8-3.8-1.2-7-1.2-9.6v-3.2
			C271.4,86.8,275.3,83.9,279,83.9z M281.3,96.7v11.6l-1.2,10.6c7.8-1.9,11.6-5.4,11.6-10.6v-1C291.8,101.9,288.3,98.3,281.3,96.7z"
			/>
	</g>
</g>
</svg>
